<svg version="1.2" xmlns="http://www.w3.org/2000/svg" viewBox="0 0 40 40" width="40" height="40"><style>.s0{fill:#ffffff;stroke:#ffffff;stroke-linejoin:round;stroke-width:2}.s1{fill:#ffffff}</style><path class="s0" d="m2 0h36c1.1 0 2 0.9 2 2v36c0 1.1-0.9 2-2 2h-36c-1.1 0-2-0.9-2-2v-36c0-1.1 0.9-2 2-2z" /><path class="s1" d="m20.6 19.2q0 0 0 0zm7.4-6.1v13.8c0 0.6-0.5 1.1-1.2 1.1h-13.6c-0.7 0-1.2-0.5-1.2-1.1v-13.8c0-0.6 0.5-1.1 1.2-1.1h13.6c0.7 0 1.2 0.5 1.2 1.1zm-11.1 12.3h-2.5v-7.2h2.5zm-1.2-8.2h-0.1c-0.8 0-1.3-0.6-1.3-1.3c0-0.7 0.5-1.2 1.4-1.2c0.8 0 1.3 0.5 1.3 1.2c0 0.7-0.5 1.3-1.3 1.3zm9.9 8.2h-2.4v-3.9c0-1-0.4-1.6-1.3-1.6c-0.6 0-1 0.4-1.2 0.8c-0.1 0.2-0.1 0.4-0.1 0.6v4.1h-2.4c0 0 0-6.6 0-7.3h2.4v1.1c0.3-0.5 0.9-1.2 2.2-1.2c1.6 0 2.8 1 2.8 3.2z" /></svg>