<svg version="1.2" xmlns="http://www.w3.org/2000/svg" viewBox="0 0 40 41" width="40" height="41"><style>.s0{fill-opacity: 1;fill:#ffffff;stroke:#e8ecee;stroke-linejoin:round}.s1{fill:#c6cacc}</style><path class="s0" d="m0 0h40v40h-40z" /><path class="s1" d="m27.5 18.1q1.2 0.4 2.4 0q-0.3 0.8-2 1q0 0 0 0v0.1q1.5 0.3 2.1 0.2q-0.7 0.9-2.4 0.9q-0.2 1.2-1.2 2.6q-2.2 2.7-5.3 3.5h-0.1q-3.2 0.9-6.4-0.1q-2.9-1.1-4.6-3.4q1.7 1.3 3.2 1.3q2.4 0.2 4.1-1.5q0 0 0.1 0l-0.1-0.1q-1 0.1-1.3-0.5q-0.1-0.5 0.2-0.8q0.2-0.2 0.5-0.4q-1.7 0.1-2.4-1.2q0.5-0.5 1.3-0.5q-2.1-0.6-2.2-2q0.6-0.2 1.1-0.2q-1.6-0.9-1.6-2.5q1.5 0.5 3 1.2q1.3 0.5 2.3 1.1q0.8 0.5 1.4 1.2l0.1-0.1q0.4-1.5 1.4-3q0.3-0.6 0.9-1.2q0.3-0.3 0.7-0.5q0.1 0-0.2 0.5q0.8-0.7 1.5-0.7q0.2 0.2-0.5 0.6q0.5-0.2 1.2-0.3q0.3 0 0.2 0.3q-0.2 0.3-1.6 0.6q0 0 0 0v0.1q1.5 0 2.7 1q0 0 0 0q1.3 1.3 1.5 2.8z" /></svg>